<svg width="90" height="53" viewBox="0 0 90 53" fill="none" xmlns="http://www.w3.org/2000/svg">
<path d="M13.055 33.925V39H10.01C7.84 39 6.14833 38.475 4.935 37.425C3.72167 36.3517 3.115 34.6133 3.115 32.21V24.44H0.735V19.47H3.115V14.71H9.1V19.47H13.02V24.44H9.1V32.28C9.1 32.8633 9.24 33.2833 9.52 33.54C9.8 33.7967 10.2667 33.925 10.92 33.925H13.055ZM15.1988 29.2C15.1988 27.1933 15.5721 25.4317 16.3188 23.915C17.0888 22.3983 18.1271 21.2317 19.4338 20.415C20.7404 19.5983 22.1988 19.19 23.8088 19.19C25.1854 19.19 26.3871 19.47 27.4138 20.03C28.4638 20.59 29.2688 21.325 29.8288 22.235V19.47H35.8138V39H29.8288V36.235C29.2454 37.145 28.4288 37.88 27.3788 38.44C26.3521 39 25.1504 39.28 23.7738 39.28C22.1871 39.28 20.7404 38.8717 19.4338 38.055C18.1271 37.215 17.0888 36.0367 16.3188 34.52C15.5721 32.98 15.1988 31.2067 15.1988 29.2ZM29.8288 29.235C29.8288 27.7417 29.4088 26.5633 28.5688 25.7C27.7521 24.8367 26.7488 24.405 25.5588 24.405C24.3688 24.405 23.3538 24.8367 22.5138 25.7C21.6971 26.54 21.2888 27.7067 21.2888 29.2C21.2888 30.6933 21.6971 31.8833 22.5138 32.77C23.3538 33.6333 24.3688 34.065 25.5588 34.065C26.7488 34.065 27.7521 33.6333 28.5688 32.77C29.4088 31.9067 29.8288 30.7283 29.8288 29.235ZM48.0886 39.28C46.3853 39.28 44.8686 38.9883 43.5386 38.405C42.2086 37.8217 41.1586 37.0283 40.3886 36.025C39.6186 34.9983 39.187 33.855 39.0936 32.595H45.0086C45.0786 33.2717 45.3936 33.82 45.9536 34.24C46.5136 34.66 47.202 34.87 48.0186 34.87C48.7653 34.87 49.337 34.73 49.7336 34.45C50.1536 34.1467 50.3636 33.7617 50.3636 33.295C50.3636 32.735 50.072 32.3267 49.4886 32.07C48.9053 31.79 47.9603 31.4867 46.6536 31.16C45.2536 30.8333 44.087 30.495 43.1536 30.145C42.2203 29.7717 41.4153 29.2 40.7386 28.43C40.062 27.6367 39.7236 26.575 39.7236 25.245C39.7236 24.125 40.027 23.11 40.6336 22.2C41.2636 21.2667 42.1736 20.5317 43.3636 19.995C44.577 19.4583 46.012 19.19 47.6686 19.19C50.1186 19.19 52.0436 19.7967 53.4436 21.01C54.867 22.2233 55.6836 23.8333 55.8936 25.84H50.3636C50.2703 25.1633 49.967 24.6267 49.4536 24.23C48.9636 23.8333 48.3103 23.635 47.4936 23.635C46.7936 23.635 46.257 23.775 45.8836 24.055C45.5103 24.3117 45.3236 24.6733 45.3236 25.14C45.3236 25.7 45.6153 26.12 46.1986 26.4C46.8053 26.68 47.7386 26.96 48.9986 27.24C50.4453 27.6133 51.6236 27.9867 52.5336 28.36C53.4436 28.71 54.237 29.2933 54.9136 30.11C55.6136 30.9033 55.9753 31.9767 55.9986 33.33C55.9986 34.4733 55.672 35.5 55.0186 36.41C54.3886 37.2967 53.467 37.9967 52.2536 38.51C51.0636 39.0233 49.6753 39.28 48.0886 39.28ZM71.5952 39L65.6452 30.81V39H59.6602V13.1H65.6452V27.415L71.5602 19.47H78.9452L70.8252 29.27L79.0152 39H71.5952Z" fill="#E0E4E5"/>
<path d="M84.096 39.28C83.046 39.28 82.1826 38.9767 81.506 38.37C80.8526 37.74 80.526 36.97 80.526 36.06C80.526 35.1267 80.8526 34.345 81.506 33.715C82.1826 33.085 83.046 32.77 84.096 32.77C85.1226 32.77 85.9626 33.085 86.616 33.715C87.2926 34.345 87.631 35.1267 87.631 36.06C87.631 36.97 87.2926 37.74 86.616 38.37C85.9626 38.9767 85.1226 39.28 84.096 39.28Z" fill="#8E00FD"/>
</svg>
